<?xml version="1.0" encoding="UTF-8"?><svg id="Mistlight_Logo_Color" xmlns="http://www.w3.org/2000/svg" viewBox="0 0 1424.04 1430.72"><defs><style>.cls-1{fill:#685dc6;}.cls-1,.cls-2,.cls-3{fill-rule:evenodd;}.cls-4{fill:#fff8bb;}.cls-2{fill:#9478ec;}.cls-3{fill:#fcbb3e;}</style></defs><g id="Bloom"><circle class="cls-4" cx="743.08" cy="766.8" r="448.75"/></g><g id="Light"><path class="cls-3" d="M1015.8,734.78l242.14-552.74-445.86,286.86L561.39,0l-47.55,535.36c23.08,41.45,42.29,86.07,57.83,130.57,14.47-15.74,31.19-29.42,49.72-40.47l23.95-214.12,99.46,183.2c24.51,1.09,48.06,6.19,69.97,14.7l176.25-120.99s-80.33,193.1-80.31,193.07c59.32,82.76,40.86,165.93,33.17,193.1,15.64,2.16,36.11,6.42,51.69,10.26,38.93,9.6,65.53,28.11,65.53,28.11l362.94,30.62-408.24-208.64Z"/></g><g id="Mist"><path class="cls-2" d="M1170.19,1067.76c-15.11,0-30.57,3.76-43.92,8.79-5.35-26.8-27.53-110.33-133.54-157.49-58.09-25.84-134.56-32.84-201.03-8.35.4-2.74.63-5.5.63-8.29,0-67.44-52.67-123.11-120.11-123.11-37.98,0-72.9,19.34-95.3,46.53-24.51-159.65-146.23-452.41-361.3-414.18-47.94,8.52-178.71,64.65-178.71,208.41,0,79.21,46.72,148.97,112.29,183.43-24.2-2.33-137.14-7.84-147.29,101.54-9.07,97.7,58.2,156.01,140.02,156.15,103.26,237.88,351.41,393.72,623.26,366.43,128.18-12.87,243.15-64.38,334.52-141.81,6.88,5.34,45.91,23.4,70.49,23.4,67.23,0,120.73-53.5,120.73-120.73s-53.5-120.73-120.73-120.73Z"/></g><g id="Mist_Shadow"><path class="cls-1" d="M1170.24,1066.78c-15.11,0-29.58,2.76-42.93,7.79-5.35-26.8-28.53-109.35-134.55-156.51-58.1-25.84-132.57-33.84-199.05-9.35.4-2.74.63-5.5.63-8.29,0-67.45-54.68-122.13-122.13-122.13-37.98,0-71.91,17.34-94.31,44.54-24.51-159.67-147.25-450.46-362.34-412.22-45.16,8.03-81.99,26.52-109.34,53.5-43.72,37.77-71.39,93.62-71.39,155.93,0,79.22,44.73,147.99,110.3,182.45-24.2-2.33-134.15-6.84-144.3,102.55-9.09,97.9,57.47,159.28,141.54,157.15-.45-4.84-3.8-38.38,20.17-90.75,36.64-80.04,117.94-135.6,207.81-133.49,83.18,1.95,136.91,37.4,177.82,89.1,46.69,59.01,59.84,133.02,51.89,212.18,75.52-57.78,161.68-15.6,176.61,59.91,41.53-29.73,93.68-44.97,148.48-39.23,80.29,8.41,142.5,57.09,172.68,126.13,19.65,13.61,46.69,24.21,72.41,24.21,67.24,0,121.74-54.51,121.74-121.74s-54.51-121.74-121.74-121.74Z"/></g></svg>