<?xml version="1.0" encoding="UTF-8"?>
<svg xmlns="http://www.w3.org/2000/svg" viewBox="0 0 4906.77 1556.98">
  <defs>
    <style>
      .cls-1 {
        fill: #fff;
        fill-rule: evenodd;
      }

      .cls-2 {
        isolation: isolate;
      }
    </style>
  </defs>
  <g id="Mistlight_Logo" data-name="Mistlight Logo" class="cls-2">
    <path id="Mistlight_LogoType" class="cls-1" d="M4833.83,1198.68c-20.85,8.36-39.56,19.09-56.02,31.96-24.03-22.01-50.57-41.24-79.11-56.21-.12-164.32-.38-255.83-.12-275.54,1.46-109.83-80.81-163.92-80.81-163.92h80l136.05-240.38v239.83l72.95,126.55h-73l.06,337.72ZM4640.85,1148.29c-35.61-10.51-71.26-16.14-110.22-16.14-7.6,0-16.15.22-23.65.65l-.21-157.83c2.9-68.05-22.13-112.85-68.49-114.62-43.82-1.67-71.85,47.85-72.51,81.62-.85,43.69-.98,60.63-.98,100.63l.11,124.88c-53.44,24.27-100.69,60.05-138.68,104.23v-733.75l136.49-241.5v479.91c45.6-42.03,90.11-44.19,129.67-40.43,48.88,4.66,91.05,36.17,116.73,77.39,30.55,49.04,31.59,93.08,31.59,136.08s.16,198.89.16,198.89ZM4137.55,1302c-39.83,64.42-121.14,103.95-200.79,103.95-33.24,0-62.39-2.86-96.29-19.95-10.07-34.31-24.33-66.78-42.16-96.84-2.46-5.01-5.05-9.96-7.82-14.83l33.42-46.02c25.44,27.33,55.88,59.66,111.18,58.56,109.01-2.17,102.47-132.17,102.47-132.17-2.45,3.78-83.85,63.69-195.81-8.54-57.27-36.92-91.68-103.97-91.68-191.15s39-143.19,95.42-183.54c110.65-79.08,212.81,1.01,226.29,22.73l95.99-168.25-.35,538.27c0,41.63-9.96,105.57-29.87,137.78ZM3956.77,860.96c-60.23,0-89.71,34.68-89.71,103.66s36.25,95.62,88.92,95.62c37.51,0,77.9-18.49,81.59-88.98,3.69-70.49-26.06-110.3-80.8-110.3ZM3644.27,711.96c-40.04,0-72.5-32.46-72.5-72.5s32.46-72.5,72.5-72.5,72.5,32.46,72.5,72.5-32.46,72.5-72.5,72.5ZM3379.55,1075.37v-540.79l134.83-237.5v776.55c-20.26-3.07-41-4.67-62.11-4.67-24.81,0-49.11,2.2-72.72,6.42ZM3280.52,1110.17c-37.02,17.97-71.03,41.31-101.03,69.04-12.37,10.88-23.78,22.51-34.09,34.84-.13-167.47-.42-310.08-.13-330.17,1.46-100.83-78.01-148.92-78.01-148.92l77.42-.13,135.83-237.25v237.47l70.75,125.91h-71l.25,249.21ZM3020.27,914.96c-7.03-13.46-35.35-57.34-87-58-20.43-.26-43,4.67-43,24,0,13.25,11.19,17.58,30.69,20.94-4.46-.77,49.98,9.24,80.31,23.06,45.86,20.9,91.71,57.95,91,120-1.88,164.18-217.5,133.94-182,137.21-73.61-6.79-135.24-51.86-153-78.21,8.89-17.77,36.57-69.27,56-102,21.15,41.97,70.42,61.82,108,63,21.09.66,48.74.89,48-21-1.19-34.99-63.01-22.87-112-43-54.33-22.33-86.33-56.55-85.67-130.08.59-65.51,44.63-114.06,105.36-129.26,137.75-34.49,196.47,71.1,196.31,82.35-14.03,22.49-53.26,91.02-53,91ZM2650.77,711.96c-40.04,0-72.5-32.46-72.5-72.5s32.46-72.5,72.5-72.5,72.5,32.46,72.5,72.5-32.46,72.5-72.5,72.5ZM2381.68,1099.76v-239.93l-115.96,202.72c-13.58-1.7-27.41-2.59-41.45-2.59-29.28,0-57.68,3.82-84.76,10.98l-112.53-198.72v249.81c-31.7,21.2-59.64,47.57-82.67,77.88-14.32-44.71-33.02-91.37-56.06-135.93V301.06l314.2,557.97,317.95-557.97v883.96c-11.19.22-22.21,1.74-32.86,4.46-28.73-36.83-64.75-67.5-105.86-89.73ZM2713.2,1154.16c-30.65,2.01-63.52,15.79-94.45,42.03-5.06,4.29-9.92,8.83-14.62,13.55-7.79-5.25-16.18-9.79-25.11-13.52v-445.58h134.18v403.51ZM3709.03,1168.1c-39.94-34.08-86.27-60.69-136.9-77.72v-339.18h136.9v416.9ZM1692.17,1121.06l-431.28-36.39s-31.61-22-77.87-33.4c-18.51-4.56-42.84-9.63-61.42-12.19,9.14-32.3,31.07-131.12-39.41-229.46-.03.03,95.43-229.43,95.43-229.43l-209.44,143.78c-26.04-10.12-54.03-16.18-83.15-17.47l-118.19-217.69-28.46,254.44c-22.01,13.13-41.89,29.38-59.08,48.09-18.47-52.88-41.29-105.9-68.72-155.16L667.1,0l297.89,557.19,529.81-340.87-287.73,656.81,485.11,247.92ZM1535.25,1412.31c0-79.9-64.77-144.67-144.67-144.67-17.96,0-35.15,3.28-51.01,9.26-6.36-31.85-33.91-129.93-159.89-185.98-69.04-30.71-157.53-40.22-236.53-11.11.47-3.25.74-6.54.74-9.85,0-80.15-64.97-145.12-145.12-145.12-45.13,0-85.45,20.61-112.07,52.92-29.13-189.73-174.97-535.27-430.56-489.83-53.67,9.54-97.43,31.51-129.93,63.57-51.95,44.89-84.83,111.25-84.83,185.3,0,94.14,53.15,175.85,131.07,216.81-28.75-2.77-159.41-8.12-171.47,121.86-10.8,116.34,68.3,189.27,168.19,186.75-.54-5.75-4.51-45.61,23.97-107.84,43.53-95.11,140.15-161.13,246.94-158.62,98.85,2.32,162.69,44.44,211.3,105.88,55.49,70.12,71.11,158.07,61.66,252.13,89.74-68.67,192.12-18.54,209.87,71.19,49.35-35.33,111.32-53.44,176.44-46.62,95.41,10,169.34,67.84,205.2,149.88,23.36,16.17,55.48,28.77,86.04,28.77,79.9,0,144.67-64.77,144.67-144.67Z"/>
  </g>
</svg>